<svg width="212" height="304" viewBox="0 0 212 304" xmlns="http://www.w3.org/2000/svg" xmlns:xlink="http://www.w3.org/1999/xlink"><defs>
<filter id="filter" x="0" y="0" filterUnits="userSpaceOnUse">
<feOffset dy="4" input="SourceAlpha"></feOffset>
<feGaussianBlur stdDeviation="10" result="blur"></feGaussianBlur>
<feFlood flood-opacity="0.12"></feFlood>
<feComposite operator="in" in2="blur"></feComposite>
<feComposite in="SourceGraphic"></feComposite>
</filter>
</defs>
<g>
<g filter="url(#filter)">
<rect width="180" height="256" rx="4" transform="translate(16 24)" fill="white"></rect>
</g><g transform="translate(16 32)">
<rect width="180" height="48" stroke="none" fill="#000000" opacity="0"></rect><text transform="translate(24 29)" fill="#666666" font-size="14" font-family="Roboto-Regular,Roboto" ><tspan x="0" y="0">MENU FLOOR-2</tspan></text>
</g><g transform="translate(16 80)">
<rect id="Conveyorf2" width="180" height="48" stroke="none" fill="#000000" opacity="0" ></rect><text transform="translate(56 29)" fill="#212121" font-size="14" font-family="Roboto-Regular,Roboto" style="cursor: pointer;"><tspan x="0" y="0">Conveyor</tspan></text>
</g><g transform="translate(40 92)"><rect width="24" height="24" fill="#ffffff" opacity="0"></rect><g transform="matrix(0.69 0 0 0.69 12 12)">
<path style="stroke: none; stroke-width: 1; stroke-dasharray: none; stroke-linecap: butt; stroke-dashoffset: 0; stroke-linejoin: miter; stroke-miterlimit: 4; fill: rgb(0,0,0); fill-rule: nonzero; opacity: 1;" transform=" translate(-16, -16)" d="M 16 3 C 8.832031 3 3 8.832031 3 16 C 3 23.167969 8.832031 29 16 29 C 23.167969 29 29 23.167969 29 16 C 29 8.832031 23.167969 3 16 3 Z M 16 5 C 22.085938 5 27 9.914063 27 16 C 27 22.085938 22.085938 27 16 27 C 9.914063 27 5 22.085938 5 16 C 5 9.914063 9.914063 5 16 5 Z M 15 10 L 15 12 L 17 12 L 17 10 Z M 15 14 L 15 22 L 17 22 L 17 14 Z" stroke-linecap="round"></path>
</g></g><g transform="translate(16 128)">
<rect id="Onofff2" width="180" height="48" stroke="none" fill="#000000" opacity="0"></rect><text transform="translate(56 29)" fill="#212121" font-size="14" font-family="Roboto-Regular,Roboto"  style="cursor: pointer;"><tspan x="0" y="0">On/Off belt</tspan></text>
</g><g transform="translate(40 140)"><rect width="24" height="24" fill="#ffffff" opacity="0"></rect><g transform="matrix(1 0 0 1 12 12)">
<g style="">
<g transform="matrix(1 0 0 1 0 0)">
<path style="stroke: none; stroke-width: 2; stroke-dasharray: none; stroke-linecap: round; stroke-dashoffset: 0; stroke-linejoin: round; stroke-miterlimit: 4; fill: none; fill-rule: nonzero; opacity: 1;" transform=" translate(-12, -12)" d="M 0 0 L 24 0 L 24 24 L 0 24 z" stroke-linecap="round"></path>
</g>
<g transform="matrix(1 0 0 1 0 0.84)">
<path style="stroke: rgb(33,33,33); stroke-width: 2; stroke-dasharray: none; stroke-linecap: round; stroke-dashoffset: 0; stroke-linejoin: round; stroke-miterlimit: 4; fill: none; fill-rule: nonzero; opacity: 1;" transform=" translate(-12, -12.84)" d="M 7 6 C 4.51403595882479 8.099149681682515 3.603936415933534 11.527579382088797 4.721502997904817 14.583310315103844 C 5.839069579876099 17.639041248118893 8.746317993392106 19.671359641163505 12.000000000000002 19.671359641163505 C 15.253682006607898 19.671359641163505 18.160930420123904 17.639041248118886 19.278497002095186 14.58331031510384 C 20.396063584066468 11.527579382088794 19.485964041175208 8.099149681682512 17 5.999999999999998" stroke-linecap="round"></path>
</g>
<g transform="matrix(1 0 0 1 0 -4)">
<line style="stroke: rgb(33,33,33); stroke-width: 2; stroke-dasharray: none; stroke-linecap: round; stroke-dashoffset: 0; stroke-linejoin: round; stroke-miterlimit: 4; fill: none; fill-rule: nonzero; opacity: 1;" x1="0" y1="-4" x2="0" y2="4"></line>
</g>
</g>
</g></g><g transform="translate(16 176)">
<rect id="Electricf2" width="180" height="48" stroke="none" fill="#000000" opacity="0"></rect><text transform="translate(56 29)" fill="#212121" font-size="14" font-family="Roboto-Regular,Roboto" style="cursor: pointer;" ><tspan x="0" y="0">Electric</tspan></text>
</g><g transform="translate(40 188)"><rect width="24" height="24" fill="#ffffff" opacity="0"></rect><g transform="matrix(0.75 0 0 0.75 12 12)">
<path style="stroke: none; stroke-width: 1; stroke-dasharray: none; stroke-linecap: butt; stroke-dashoffset: 0; stroke-linejoin: miter; stroke-miterlimit: 4; fill: rgb(0,0,0); fill-rule: nonzero; opacity: 1;" transform=" translate(-15, -15)" d="M 19.980469 2.9902344 C 19.72067037618049 2.997975535874743 19.474090604386603 3.106554705716428 19.292969 3.2929688000000006 L 15 7.5859375 L 11.707031 4.2929688 C 11.518759880474398 4.099436007065103 11.260235770628602 3.9902500851378337 10.990234 3.9902344 C 10.583311023067873 3.9903415110836695 10.217025302418019 4.236990168105904 10.063903455811417 4.614004784161928 C 9.910781609204816 4.991019400217953 10.001357741510441 5.423219300055296 10.292969 5.7070312 L 14.150391 9.5644531 C 14.225814571706517 9.67968214022978 14.324224090232901 9.778091828978328 14.439453 9.8535156 L 20.150391 15.564453 C 20.22581451787984 15.679682220886901 20.32422404003839 15.778092083489796 20.439453 15.853516 L 24.292969 19.707031 C 24.54378557313715 19.968271794792877 24.916235992218144 20.07350663500295 25.26667805152247 19.982149810984033 C 25.617120110826793 19.89079298696512 25.89079298696512 19.617120110826793 25.982149810984033 19.26667805152247 C 26.07350663500295 18.916235992218144 25.968271794792877 18.54378557313715 25.707031 18.292969 L 22.414062 15 L 26.707031 10.707031 C 27.00279123042349 10.419539621515218 27.09171950642884 9.979965174993408 26.930965359148026 9.600118481266513 C 26.77021121186721 9.220271787539616 26.39275237576014 8.978076082885437 25.980469 8.9902344 C 25.72067037618049 8.997975535874744 25.474090604386603 9.106554705716428 25.292969 9.2929688 L 21 13.585938 L 16.414062 9 L 20.707031 4.7070312 C 21.00279138203425 4.419539844341691 21.091719755203744 3.9799652994331196 20.930965587636003 3.6001185135195093 C 20.770211420068257 3.220271727605899 20.392752465942692 2.9780759926381157 19.980469 2.9902344 z M 9.6035156 7.7207031 L 5.4648438 11.859375 C 3.5118437 13.812375 3.5118437 16.978641 5.4648438 18.931641 L 5.6699219 19.136719 L 5.3867188 19.419922 C 4.4337187 20.372922 4.4337187 21.918094 5.3867188 22.871094 L 5.5507812 23.035156 L 3.2929688 25.292969 C 3.0317309797369796 25.54378627693672 2.9264984571322685 25.91623528883332 3.017855724123107 26.26667551899203 C 3.1092129911139454 26.61711574915074 3.3828845028288645 26.890787183451394 3.7333247588300646 26.982144351312154 C 4.083765014831265 27.073501519172915 4.456213996960413 26.968268891212443 4.7070312 26.707031 L 6.9648438 24.449219 L 7.1308594 24.615234 C 8.0838594 25.568234 9.6270781 25.568234 10.580078 24.615234 L 10.865234 24.332031 L 11.068359 24.535156 C 13.021359 26.488156 16.187625 26.488156 18.140625 24.535156 L 22.279297 20.396484 L 9.6035156 7.7207031 z M 10 14 C 10.552 14 11 14.448 11 15 C 11 15.552 10.552 16 10 16 C 9.448 16 9 15.552 9 15 C 9 14.448 9.448 14 10 14 z M 15 19 C 15.552 19 16 19.448 16 20 C 16 20.552 15.552 21 15 21 C 14.448 21 14 20.552 14 20 C 14 19.448 14.448 19 15 19 z" stroke-linecap="round"></path>
</g></g><g transform="translate(16 224)">
<rect id="Lightingf2" width="180" height="48" stroke="none" fill="#000000" opacity="0"></rect><text transform="translate(56 29)" fill="#212121" font-size="14" font-family="Roboto-Regular,Roboto" style="cursor: pointer;"><tspan x="0" y="0">Lighting</tspan></text>
</g><g transform="translate(40 236)"><rect width="24" height="24" fill="#ffffff" opacity="0"></rect><g transform="matrix(1.29 0 0 1.29 12 12)">
<g style="">
<g transform="matrix(1 0 0 1 0 1.85)">
<path style="stroke: rgb(0,0,0); stroke-width: 1; stroke-dasharray: none; stroke-linecap: round; stroke-dashoffset: 0; stroke-linejoin: round; stroke-miterlimit: 4; fill: none; fill-rule: nonzero; opacity: 1;" transform=" translate(-7, -8.85)" d="M 10.5 8 C 10.506465924519997 6.272640949734378 9.251766203870051 4.79887890349452 7.5455024916731075 4.529666643085828 C 5.839238779476164 4.2604543826771355 4.191730228681243 5.276309457475587 3.666040475255823 6.921745989177119 C 3.140350721830403 8.567182520878653 3.893706077137937 10.350073899108297 5.44 11.120000000000001 L 5.44 12.840000000000002 C 5.445424232016064 13.051475941825318 5.618454516885169 13.22006955272342 5.83 13.220000000000002 L 8.17 13.220000000000002 C 8.38154548311483 13.220069552723421 8.554575767983936 13.051475941825318 8.56 12.840000000000002 L 8.56 11.09 C 9.734835926861939 10.505165660337164 10.483784381697847 9.312252915263478 10.5 8.000000000000002 Z" stroke-linecap="round"></path>
</g>
<g transform="matrix(1 0 0 1 0 -5.44)">
<line style="stroke: rgb(0,0,0); stroke-width: 1; stroke-dasharray: none; stroke-linecap: round; stroke-dashoffset: 0; stroke-linejoin: round; stroke-miterlimit: 4; fill: none; fill-rule: nonzero; opacity: 1;" x1="0" y1="-0.75" x2="0" y2="0.75"></line>
</g>
<g transform="matrix(1 0 0 1 3.47 -4.22)">
<line style="stroke: rgb(0,0,0); stroke-width: 1; stroke-dasharray: none; stroke-linecap: round; stroke-dashoffset: 0; stroke-linejoin: round; stroke-miterlimit: 4; fill: none; fill-rule: nonzero; opacity: 1;" x1="0.5300000000000002" y1="-0.5349999999999999" x2="-0.5300000000000002" y2="0.5349999999999999"></line>
</g>
<g transform="matrix(1 0 0 1 5.53 -1.66)">
<line style="stroke: rgb(0,0,0); stroke-width: 1; stroke-dasharray: none; stroke-linecap: round; stroke-dashoffset: 0; stroke-linejoin: round; stroke-miterlimit: 4; fill: none; fill-rule: nonzero; opacity: 1;" x1="0.75" y1="0" x2="-0.75" y2="0"></line>
</g>
<g transform="matrix(1 0 0 1 -3.47 -4.22)">
<line style="stroke: rgb(0,0,0); stroke-width: 1; stroke-dasharray: none; stroke-linecap: round; stroke-dashoffset: 0; stroke-linejoin: round; stroke-miterlimit: 4; fill: none; fill-rule: nonzero; opacity: 1;" x1="-0.5299999999999998" y1="-0.5349999999999999" x2="0.5299999999999998" y2="0.5349999999999999"></line>
</g>
<g transform="matrix(1 0 0 1 -5.53 -1.66)">
<line style="stroke: rgb(0,0,0); stroke-width: 1; stroke-dasharray: none; stroke-linecap: round; stroke-dashoffset: 0; stroke-linejoin: round; stroke-miterlimit: 4; fill: none; fill-rule: nonzero; opacity: 1;" x1="-0.7500000000000001" y1="0" x2="0.7500000000000001" y2="0"></line>
</g>
</g>
</g></g></g></svg>